<svg width="24" height="24" viewBox="0 0 24 24" fill="none" xmlns="http://www.w3.org/2000/svg">
<path d="M12 0C5.373 0 0 5.373 0 12C0 18.627 5.373 24 12 24C18.627 24 24 18.627 24 12C24 5.373 18.627 0 12 0ZM11.243 2.14C11.498 2.12 11.753 2.111 12 2.111C12.247 2.111 12.502 2.121 12.757 2.14V5.255C12.506 5.227 12.252 5.213 12 5.213C11.748 5.213 11.494 5.227 11.243 5.255V2.14ZM5.478 10.117L2.599 8.924C2.755 8.446 2.95 7.976 3.179 7.525L6.058 8.718C5.813 9.161 5.618 9.631 5.478 10.117ZM6.695 7.767L4.493 5.563C4.822 5.18 5.181 4.821 5.564 4.492L7.767 6.695C7.371 7.012 7.012 7.371 6.695 7.767ZM7.489 3.198C7.938 2.967 8.407 2.77 8.885 2.612L10.09 5.486C9.604 5.628 9.136 5.825 8.694 6.072L7.489 3.198ZM12 17.508C10.642 17.508 9.541 16.407 9.541 15.049C9.541 14.122 10.054 13.315 10.811 12.896L12 7.324L13.189 12.896C13.946 13.315 14.46 14.122 14.46 15.049C14.459 16.407 13.358 17.508 12 17.508ZM13.884 5.479L15.077 2.6C15.556 2.757 16.025 2.952 16.476 3.181L15.283 6.059C14.839 5.813 14.37 5.619 13.884 5.479ZM16.233 6.695L18.436 4.492C18.819 4.821 19.178 5.18 19.507 5.563L17.304 7.766C16.988 7.371 16.629 7.012 16.233 6.695ZM18.492 10.016C18.345 9.533 18.142 9.066 17.889 8.626L20.749 7.388C20.984 7.833 21.186 8.3 21.351 8.778L18.492 10.016Z" fill="white"/>
</svg>
